<svg width="26" height="23" viewBox="0 0 26 23" fill="none" xmlns="http://www.w3.org/2000/svg">
<path d="M21.1279 9.57138C20.9457 9.57138 20.3356 9.57674 20.1636 9.58745L16.6868 9.67852C16.6688 9.67963 16.6507 9.67571 16.6348 9.6672C16.6188 9.65869 16.6055 9.64592 16.5963 9.63031L9.65455 1.19071C9.61245 1.13498 9.55873 1.08905 9.49713 1.05613C9.43553 1.0232 9.3675 1.00405 9.29777 1H7.85724L11.7679 9.62495C11.7773 9.64469 11.7813 9.66652 11.7796 9.6883C11.778 9.71007 11.7707 9.73104 11.7585 9.74914C11.7463 9.76724 11.7295 9.78185 11.71 9.79155C11.6904 9.80124 11.6687 9.80567 11.6469 9.80442L5.12779 9.90084C5.05995 9.9029 4.99259 9.88893 4.93115 9.86008C4.86972 9.83122 4.81596 9.78829 4.77422 9.73477L2.79209 7.32407C2.63138 7.11514 2.33031 7.00265 2.06835 7.00265H1.05799C0.988888 7.00265 0.999066 7.06747 1.01782 7.13282L2.08067 10.9589C2.16101 11.1638 2.16101 11.3915 2.08067 11.5964L1.01674 15.4106C0.985138 15.5151 0.988888 15.5713 1.11157 15.5713H2.07156C2.50763 15.5713 2.56709 15.5146 2.78995 15.2338L4.80958 12.7856C4.85168 12.7325 4.90552 12.6899 4.96686 12.6611C5.02821 12.6323 5.09539 12.6181 5.16315 12.6196L11.6281 12.7642C11.6517 12.7648 11.6747 12.771 11.6953 12.7825C11.7158 12.794 11.7333 12.8103 11.7461 12.83C11.7589 12.8498 11.7668 12.8723 11.7689 12.8958C11.771 12.9192 11.7674 12.9429 11.7583 12.9646L7.85724 21.5713H9.28438C9.35397 21.5673 9.42187 21.5482 9.48337 21.5153C9.54487 21.4825 9.59852 21.4367 9.64062 21.3811L16.5968 12.9464C16.6177 12.9142 16.704 12.8981 16.7409 12.8981L20.1641 12.9892C20.3409 12.9999 20.9457 13.0053 21.1284 13.0053C23.5 13.0053 25 12.3533 25 11.2857C25 10.218 23.5064 9.57138 21.1279 9.57138Z" stroke="#339AF0" stroke-linecap="round" stroke-linejoin="round"/>
</svg>
