<svg width="40" height="34" viewBox="0 0 40 34" fill="none" xmlns="http://www.w3.org/2000/svg">
<path d="M7.68979 19.6667C7.97313 19.6667 8.92229 19.6583 9.18979 19.6417L14.5981 19.5C14.6262 19.4983 14.6543 19.5044 14.6791 19.5176C14.704 19.5308 14.7247 19.5507 14.739 19.575L25.5373 32.7033C25.6028 32.79 25.6863 32.8615 25.7822 32.9127C25.878 32.9639 25.9838 32.9937 26.0923 33L28.3331 33L22.2498 19.5833C22.2353 19.5526 22.229 19.5187 22.2316 19.4848C22.2342 19.4509 22.2455 19.4183 22.2645 19.3902C22.2835 19.362 22.3095 19.3393 22.3399 19.3242C22.3704 19.3091 22.4042 19.3022 22.4381 19.3042L32.579 19.1542C32.6845 19.151 32.7893 19.1727 32.8848 19.2176C32.9804 19.2625 33.064 19.3292 33.129 19.4125L36.2123 23.1625C36.4623 23.4875 36.9306 23.6625 37.3381 23.6625L38.9098 23.6625C39.0173 23.6625 39.0015 23.5617 38.9723 23.46L37.319 17.5083C37.194 17.1896 37.194 16.8354 37.319 16.5167L38.974 10.5833C39.0231 10.4208 39.0173 10.3333 38.8265 10.3333L37.3331 10.3333C36.6548 10.3333 36.5623 10.4217 36.2156 10.8583L33.074 14.6667C33.0085 14.7493 32.9247 14.8156 32.8293 14.8604C32.7339 14.9052 32.6294 14.9273 32.524 14.925L22.4673 14.7C22.4307 14.6992 22.3948 14.6894 22.3628 14.6716C22.3308 14.6537 22.3037 14.6284 22.2837 14.5976C22.2638 14.5669 22.2516 14.5318 22.2483 14.4953C22.245 14.4589 22.2507 14.4221 22.2648 14.3883L28.3331 0.999999L26.1131 0.999999C26.0049 1.00631 25.8992 1.03603 25.8036 1.0871C25.7079 1.13817 25.6244 1.20938 25.559 1.29583L14.7381 14.4167C14.7056 14.4667 14.5715 14.4917 14.514 14.4917L9.18896 14.35C8.91396 14.3333 7.97312 14.325 7.68896 14.325C3.99979 14.325 1.66646 15.3392 1.66646 17C1.66646 18.6608 3.98979 19.6667 7.68979 19.6667Z" stroke="black" stroke-width="2" stroke-linecap="round" stroke-linejoin="round"/>
</svg>
