<svg width="32" height="32" viewBox="0 0 32 32" fill="none" xmlns="http://www.w3.org/2000/svg">
    <g clip-path="url(#clip0_60_3014)">
        <path d="M29.1956 5.01861C29.185 4.96731 29.16 4.92012 29.1234 4.88259C29.0869 4.84506 29.0404 4.81874 28.9894 4.80673C25.5906 3.97548 17.7394 6.93736 13.4813 11.1924C12.7224 11.945 12.0304 12.7623 11.4131 13.6349C10.1006 13.5161 8.78815 13.6161 7.67065 14.1036C4.51502 15.4911 3.59689 19.1149 3.34064 20.6705C3.32676 20.7557 3.33269 20.843 3.35798 20.9256C3.38326 21.0082 3.42722 21.0838 3.48645 21.1467C3.54567 21.2095 3.61858 21.2579 3.69951 21.288C3.78045 21.3182 3.86723 21.3293 3.95314 21.3205L9.02002 20.7642C9.02353 21.1464 9.04647 21.5281 9.08877 21.908C9.11521 22.1705 9.23235 22.4156 9.42002 22.6011L11.3819 24.563C11.5675 24.7508 11.8129 24.8679 12.0756 24.8942C12.4532 24.9363 12.8326 24.9593 13.2125 24.963L12.6569 30.0255C12.6482 30.1113 12.6594 30.1979 12.6895 30.2787C12.7197 30.3595 12.768 30.4323 12.8308 30.4915C12.8936 30.5506 12.9691 30.5945 13.0515 30.6198C13.134 30.6451 13.2211 30.6511 13.3063 30.6374C14.8625 30.3874 18.4938 29.4692 19.8731 26.3142C20.3606 25.1955 20.4606 23.8899 20.3481 22.5836C21.2233 21.9669 22.0429 21.2749 22.7975 20.5155C27.0713 16.2655 30.0144 8.58673 29.1956 5.01861ZM18.9988 15.0099C18.6255 14.6367 18.3712 14.1611 18.2682 13.6434C18.1652 13.1257 18.218 12.5891 18.42 12.1014C18.622 11.6137 18.964 11.1969 19.4029 10.9036C19.8418 10.6103 20.3578 10.4538 20.8856 10.4538C21.4135 10.4538 21.9295 10.6103 22.3684 10.9036C22.8073 11.1969 23.1493 11.6137 23.3513 12.1014C23.5533 12.5891 23.6061 13.1257 23.5031 13.6434C23.4 14.1611 23.1458 14.6367 22.7725 15.0099C22.5249 15.258 22.2308 15.4548 21.907 15.5891C21.5833 15.7235 21.2362 15.7926 20.8856 15.7926C20.5351 15.7926 20.188 15.7235 19.8643 15.5891C19.5405 15.4548 19.2464 15.258 18.9988 15.0099V15.0099Z" stroke="#FF9065" stroke-width="3" stroke-linecap="round" stroke-linejoin="round"/>
        <path d="M7.18502 23.6555C6.56197 23.732 5.98232 24.0145 5.53814 24.458C4.43689 25.563 4.33252 29.6555 4.33252 29.6555C4.33252 29.6555 8.42752 29.5511 9.52939 28.4486C9.97476 28.0052 10.2577 27.4246 10.3325 26.8005" stroke="#FF9065" stroke-width="3" stroke-linecap="round" stroke-linejoin="round"/>
    </g>
    <defs>
        <clipPath id="clip0_60_3014">
            <rect width="32" height="32" fill="white"/>
        </clipPath>
    </defs>
</svg>
