<?xml version="1.0" encoding="iso-8859-1"?>
<!-- Generator: Adobe Illustrator 18.0.0, SVG Export Plug-In . SVG Version: 6.00 Build 0)  -->
<!DOCTYPE svg PUBLIC "-//W3C//DTD SVG 1.1//EN" "http://www.w3.org/Graphics/SVG/1.1/DTD/svg11.dtd">
<svg version="1.1" id="Capa_1" xmlns="http://www.w3.org/2000/svg" xmlns:xlink="http://www.w3.org/1999/xlink" x="0px" y="0px"
	 viewBox="0 0 303.124 303.124" style="enable-background:new 0 0 303.124 303.124;" xml:space="preserve">
<g>
	<path d="M245.082,135.217L119.831,10.094C113.422,3.679,104.498,0,95.348,0c-0.28,0-0.56,0.003-0.849,0.01l-65.841,1.67
		C13.789,2.1,1.88,14.051,1.546,28.884L0.009,94.625c-0.219,9.316,3.492,18.494,10.182,25.181l125.259,125.15
		c6.59,6.585,15.331,10.211,24.609,10.211c0.001,0,0.001,0,0.001,0c9.157,0,17.754-3.56,24.206-10.021l60.841-60.879
		C258.607,170.757,258.598,148.756,245.082,135.217z M236.619,175.785l-60.843,60.881c-4.186,4.193-9.768,6.502-15.716,6.502
		c-6.076,0-11.804-2.379-16.128-6.7L18.674,111.317c-4.38-4.377-6.81-10.358-6.668-16.411l1.537-65.747
		c0.19-8.443,6.978-15.244,15.436-15.483l65.816-1.67C94.98,12.002,95.163,12,95.348,12c5.99,0,11.819,2.396,15.998,6.579
		L236.595,143.7C245.436,152.557,245.447,166.95,236.619,175.785z" fill="#57ABF4"/>
	<path d="M66.556,38.317c-7.595,0-14.732,2.955-20.104,8.326c-5.376,5.391-8.327,12.549-8.31,20.158
		c0.018,7.579,2.983,14.69,8.337,20.008c5.366,5.368,12.499,8.324,20.085,8.324c7.587,0,14.72-2.957,20.076-8.318
		c5.365-5.353,8.321-12.48,8.323-20.069c0.002-7.603-2.96-14.749-8.335-20.118C81.275,41.269,74.147,38.317,66.556,38.317z
		 M78.158,78.326c-3.096,3.099-7.213,4.806-11.593,4.806c-4.381,0-8.5-1.708-11.614-4.822c-3.091-3.071-4.799-7.168-4.809-11.538
		c-0.01-4.398,1.697-8.538,4.8-11.65c3.1-3.099,7.224-4.806,11.614-4.806c4.382,0,8.495,1.701,11.586,4.796
		c3.11,3.105,4.822,7.236,4.821,11.629C82.962,71.122,81.258,75.233,78.158,78.326z" fill="#57ABF4"/>
</g>
<g>
</g>
<g>
</g>
<g>
</g>
<g>
</g>
<g>
</g>
<g>
</g>
<g>
</g>
<g>
</g>
<g>
</g>
<g>
</g>
<g>
</g>
<g>
</g>
<g>
</g>
<g>
</g>
<g>
</g>
</svg>
